<?xml version="1.0" encoding="UTF-8"?>
<svg width="20px" height="20px" viewBox="0 0 20 20" version="1.1" xmlns="http://www.w3.org/2000/svg">
    <g stroke="none" stroke-width="1" fill="none" fill-rule="evenodd">
        <path d="M10,13.5 C11.933,13.5 13.5,11.933 13.5,10 C13.5,8.067 11.933,6.5 10,6.5 C8.067,6.5 6.5,8.067 6.5,10 C6.5,11.933 8.067,13.5 10,13.5 Z M10,15 C7.239,15 5,12.761 5,10 C5,7.239 7.239,5 10,5 C12.761,5 15,7.239 15,10 C15,12.761 12.761,15 10,15 Z" fill="#555555" fill-rule="nonzero"></path>
        <path d="M8.127,1.892 C8.731,1.507 9.379,1.195 10.059,0.965 L10.059,3.075 C9.648,3.224 9.258,3.419 8.897,3.652 L8.127,1.892 Z M3.65,8.896 L1.891,8.126 C2.276,7.523 2.588,6.874 2.818,6.195 L4.928,6.195 C4.779,6.606 4.584,6.996 4.351,7.356 L3.65,8.896 Z M11.862,1.892 L11.102,3.652 C10.742,3.419 10.351,3.224 9.94,3.075 L9.94,0.965 C10.619,1.195 11.268,1.507 11.872,1.892 L11.862,1.892 Z M16.348,8.126 L14.588,8.896 C14.355,8.536 14.16,8.146 14.011,7.735 L16.121,7.735 C16.351,8.414 16.663,9.063 17.048,9.667 L16.348,8.126 Z M8.126,14.589 L8.896,16.349 C8.293,16.733 7.644,17.046 6.964,17.275 L6.964,15.165 C7.376,15.016 7.766,14.821 8.126,14.589 Z M11.103,16.347 L11.873,14.587 C12.233,14.82 12.623,15.015 13.034,15.164 L13.034,17.274 C12.355,17.045 11.706,16.732 11.103,16.347 Z M3.65,11.103 L4.35,12.643 C4.584,13.003 4.779,13.393 4.928,13.804 L2.818,13.804 C2.588,13.125 2.276,12.476 1.891,11.873 L3.65,11.103 Z M14.649,11.103 L16.408,11.873 C16.024,12.476 15.711,13.125 15.482,13.804 L13.372,13.804 C13.521,13.393 13.716,13.003 13.949,12.643 L14.649,11.103 Z" fill="#555555" fill-rule="nonzero"></path>
    </g>
</svg>